<?xml version="1.0" encoding="UTF-8"?>
<svg width="100px" height="100px" viewBox="0 0 100 100" version="1.1" xmlns="http://www.w3.org/2000/svg" xmlns:xlink="http://www.w3.org/1999/xlink">
    <!-- Generator: Sketch 49.2 (51160) - http://www.bohemiancoding.com/sketch -->
    <title>camera</title>
    <desc>Created with Sketch.</desc>
    <defs></defs>
    <g id="camera" stroke="none" stroke-width="1" fill="none" fill-rule="evenodd">
        <path d="M13.8732394,18.3098592 L27.3943662,18.3098592 L36.4788732,9.43661972 L63.5211268,9.43661972 L72.6056338,18.3098592 L86.1267606,18.3098592 C88.6619845,18.4507049 90.7746394,19.3661887 92.4647887,21.056338 C94.154938,22.7464873 95,24.8591423 95,27.3943662 L95,81.4788732 C95,84.0140972 94.154938,86.1267521 92.4647887,87.8169014 C90.7746394,89.5070507 88.6619845,90.4225345 86.1267606,90.5633803 L13.8732394,90.5633803 C11.3380155,90.4225345 9.22536056,89.5070507 7.53521127,87.8169014 C5.84506197,86.1267521 5,84.0140972 5,81.4788732 L5,27.3943662 C5,24.8591423 5.84506197,22.7464873 7.53521127,21.056338 C9.22536056,19.3661887 11.3380155,18.4507049 13.8732394,18.3098592 Z M50,31.8309859 C43.6619401,31.9718317 38.3450919,34.1901194 34.0492958,38.4859155 C29.7534996,42.7817116 27.535212,48.0985599 27.3943662,54.4366197 C27.535212,60.7746796 29.7534996,66.0915278 34.0492958,70.3873239 C38.3450919,74.6831201 43.6619401,76.9014077 50,77.0422535 C56.3380599,76.9014077 61.6549081,74.6831201 65.9507042,70.3873239 C70.2465004,66.0915278 72.464788,60.7746796 72.6056338,54.4366197 C72.464788,48.0985599 70.2465004,42.7817116 65.9507042,38.4859155 C61.6549081,34.1901194 56.3380599,31.9718317 50,31.8309859 Z M50,40.915493 C53.8028359,41.0563387 56.9718183,42.3943535 59.5070423,44.9295775 C62.0422662,47.4648014 63.3098592,50.6337838 63.3098592,54.4366197 C63.3098592,58.2394556 62.0422662,61.408438 59.5070423,63.943662 C56.9718183,66.4788859 53.8028359,67.7464789 50,67.7464789 C46.1971641,67.7464789 43.0281817,66.4788859 40.4929577,63.943662 C37.9577338,61.408438 36.6901408,58.2394556 36.6901408,54.4366197 C36.6901408,50.6337838 37.9577338,47.4648014 40.4929577,44.9295775 C43.0281817,42.3943535 46.1971641,41.0563387 50,40.915493 Z" id="camera---Material-Design-Icons" fill="#000000"></path>
    </g>
</svg>