<svg xmlns="http://www.w3.org/2000/svg" width="100" height="100" viewBox="0 0 100 100">
  <path d="M62.0167951,62.5 L77.180574,62.5 C80.8672454,62.5 82.264902,62.2301 83.7052314,61.4598035 C84.8991898,60.8212675 85.8212675,59.8991898 86.4598035,58.7052314 C87.2301,57.264902 87.5,55.8672454 87.5,52.180574 L87.5,27.819426 C87.5,24.1327546 87.2301,22.735098 86.4598035,21.2947686 C85.8212675,20.1008102 84.8991898,19.1787325 83.7052314,18.5401965 C82.264902,17.7699 80.8672454,17.5 77.180574,17.5 L22.819426,17.5 C19.1327546,17.5 17.735098,17.7699 16.2947686,18.5401965 C15.1008102,19.1787325 14.1787325,20.1008102 13.5401965,21.2947686 C12.7699,22.735098 12.5,24.1327546 12.5,27.819426 L12.5,52.180574 C12.5,55.8672454 12.7699,57.264902 13.5401965,58.7052314 C14.1787325,59.8991898 15.1008102,60.8212675 16.2947686,61.4598035 C17.735098,62.2301 19.1327546,62.5 22.819426,62.5 L43.4375781,62.5 L43.8647051,79.3901973 L62.0167951,62.5 Z M39.1468331,90.6098027 L38.5624219,67.5 L22.819426,67.5 C18.3779311,67.5 16.2004867,67.0795161 13.9367743,65.8688695 C11.8714735,64.7643345 10.2356655,63.1285265 9.13113052,61.0632257 C7.92048392,58.7995133 7.5,56.6220689 7.5,52.180574 L7.5,27.819426 C7.5,23.3779311 7.92048392,21.2004867 9.13113052,18.9367743 C10.2356655,16.8714735 11.8714735,15.2356655 13.9367743,14.1311305 C16.2004867,12.9204839 18.3779311,12.5 22.819426,12.5 L77.180574,12.5 C81.6220689,12.5 83.7995133,12.9204839 86.0632257,14.1311305 C88.1285265,15.2356655 89.7643345,16.8714735 90.8688695,18.9367743 C92.0795161,21.2004867 92.5,23.3779311 92.5,27.819426 L92.5,52.180574 C92.5,56.6220689 92.0795161,58.7995133 90.8688695,61.0632257 C89.7643345,63.1285265 88.1285265,64.7643345 86.0632257,65.8688695 C83.7995133,67.0795161 81.6220689,67.5 77.180574,67.5 L63.9832049,67.5 L39.1468331,90.6098027 Z"/>
</svg>
