<svg xmlns="http://www.w3.org/2000/svg" width="100" height="100" viewBox="0 0 100 100">
  <path d="M50,84.7399902 C50.6791797,84.7399902 52.9205781,83.6559682 55.7594501,81.7217318 C58.9809536,79.5267934 62.7351274,76.4523723 66.4260969,72.9486985 C75.1539335,64.6637499 82.235714,55.3263803 85.499964,47.0560868 C86.8276892,44.0870129 87.5,40.9734516 87.5,37.760498 C87.5,25.3338215 77.4261883,15.2600098 64.9995117,15.2600098 C60.0591483,15.2600098 55.3668117,16.8534508 51.5013663,19.7566642 L50,20.8842928 L48.4986337,19.7566642 C44.6331883,16.8534508 39.9408517,15.2600098 35.0004883,15.2600098 C22.5738117,15.2600098 12.5,25.3338215 12.5,37.760498 C12.5,40.9734519 13.1723109,44.0870131 14.45601,46.9515517 C17.7642866,55.3263818 24.8460668,64.6637506 33.5739032,72.9486988 C37.2648727,76.4523725 41.0190465,79.5267935 44.2405499,81.7217319 C47.0794219,83.6559683 49.3208203,84.7399902 50,84.7399902 Z M69.8684252,76.5750431 C61.7541189,84.2775946 53.7369801,89.7399902 50,89.7399902 C46.26302,89.7399902 38.2458812,84.2775947 30.131575,76.5750435 C20.9386019,67.8485617 13.4513864,57.9831584 9.86987476,48.9440479 C8.31454332,45.4538549 7.5,41.6622155 7.5,37.760498 C7.5,22.5723978 19.812388,10.2600098 35.0004883,10.2600098 C40.4078317,10.2600098 45.5831363,11.8270897 50,14.7070791 C54.4168637,11.8270897 59.5921683,10.2600098 64.9995117,10.2600098 C80.187612,10.2600098 92.5,22.5723978 92.5,37.760498 C92.5,41.6622152 91.6854568,45.4538546 90.1301263,48.9440452 C86.5486142,57.9831569 79.0613985,67.8485609 69.8684252,76.5750431 Z"/>
</svg>
