<?xml version="1.0" encoding="UTF-8"?>
<svg width="100px" height="100px" viewBox="0 0 100 100" version="1.1" xmlns="http://www.w3.org/2000/svg" xmlns:xlink="http://www.w3.org/1999/xlink">
    <!-- Generator: Sketch 49.2 (51160) - http://www.bohemiancoding.com/sketch -->
    <title>image</title>
    <desc>Created with Sketch.</desc>
    <defs></defs>
    <g id="image" stroke="none" stroke-width="1" fill="none" fill-rule="evenodd">
        <path d="M32.421875,57.5 L15.078125,80 L84.921875,80 L62.421875,50 L45.078125,72.5 L32.421875,57.5 Z M95,84.921875 C95,87.7343891 94.0234473,90.1171777 92.0703125,92.0703125 C90.1171777,94.0234473 87.7343891,95 84.921875,95 L15.078125,95 C12.2656109,95 9.88282227,94.0234473 7.9296875,92.0703125 C5.97655273,90.1171777 5,87.7343891 5,84.921875 L5,15.078125 C5,12.2656109 5.97655273,9.88282227 7.9296875,7.9296875 C9.88282227,5.97655273 12.2656109,5 15.078125,5 L84.921875,5 C87.7343891,5 90.1171777,5.93749062 92.0703125,7.8125 C94.0234473,9.68750938 95,12.1093602 95,15.078125 L95,84.921875 Z" id="image---Material-Design-Icons" fill="#000000"></path>
    </g>
</svg>