<svg xmlns="http://www.w3.org/2000/svg" width="100" height="100" viewBox="0 0 100 100">
  <path d="M33.0985915,10 L66.9014085,10 C73.4116131,10.1251962 78.8575681,12.3786948 83.2394366,16.7605634 C87.6213052,21.1424319 89.8748038,26.5883869 90,33.0985915 L90,66.9014085 C89.8748038,73.4116131 87.6213052,78.8575681 83.2394366,83.2394366 C78.8575681,87.6213052 73.4116131,89.8748038 66.9014085,90 L33.0985915,90 C26.5883869,89.8748038 21.1424319,87.6213052 16.7605634,83.2394366 C12.3786948,78.8575681 10.1251962,73.4116131 10,66.9014085 L10,33.0985915 C10.1251962,26.5883869 12.3786948,21.1424319 16.7605634,16.7605634 C21.1424319,12.3786948 26.5883869,10.1251962 33.0985915,10 Z M32.3474178,17.8873239 C28.2159418,18.0125202 24.8043953,19.4209568 22.1126761,22.1126761 C19.4209568,24.8043953 18.0125202,28.2159418 17.8873239,32.3474178 L17.8873239,67.6525822 C18.0125202,71.7840582 19.4209568,75.1956047 22.1126761,77.8873239 C24.8043953,80.5790432 28.2159418,81.9874798 32.3474178,82.1126761 L67.6525822,82.1126761 C71.7840582,81.9874798 75.1956047,80.5790432 77.8873239,77.8873239 C80.5790432,75.1956047 81.9874798,71.7840582 82.1126761,67.6525822 L82.1126761,32.3474178 C81.9874798,28.2159418 80.5790432,24.8043953 77.8873239,22.1126761 C75.1956047,19.4209568 71.7840582,18.0125202 67.6525822,17.8873239 L32.3474178,17.8873239 Z M71.0328638,23.8967136 C72.4100225,24.0219099 73.5680704,24.5539859 74.5070423,25.4929577 C75.4460141,26.4319296 75.915493,27.5899775 75.915493,28.9671362 C75.915493,30.3442948 75.4460141,31.5023427 74.5070423,32.4413146 C73.5680704,33.3802864 72.4100225,33.8497653 71.0328638,33.8497653 C69.6557052,33.8497653 68.4976573,33.3802864 67.5586854,32.4413146 C66.6197136,31.5023427 66.1502347,30.3442948 66.1502347,28.9671362 C66.1502347,27.5899775 66.6197136,26.4319296 67.5586854,25.4929577 C68.4976573,24.5539859 69.6557052,24.0219099 71.0328638,23.8967136 Z M50,29.9061033 C55.633831,30.0312995 60.3599183,32.0031108 64.1784038,35.8215962 C67.9968892,39.6400817 69.9687005,44.366169 70.0938967,50 C69.9687005,55.633831 67.9968892,60.3599183 64.1784038,64.1784038 C60.3599183,67.9968892 55.633831,69.9687005 50,70.0938967 C44.366169,69.9687005 39.6400817,67.9968892 35.8215962,64.1784038 C32.0031108,60.3599183 30.0312995,55.633831 29.9061033,50 C30.0312995,44.366169 32.0031108,39.6400817 35.8215962,35.8215962 C39.6400817,32.0031108 44.366169,30.0312995 50,29.9061033 Z M50,37.9812207 C46.6197014,38.1064169 43.8028282,39.2957634 41.5492958,41.5492958 C39.2957634,43.8028282 38.1690141,46.6197014 38.1690141,50 C38.1690141,53.3802986 39.2957634,56.1971718 41.5492958,58.4507042 C43.8028282,60.7042366 46.6197014,61.8309859 50,61.8309859 C53.3802986,61.8309859 56.1971718,60.7042366 58.4507042,58.4507042 C60.7042366,56.1971718 61.8309859,53.3802986 61.8309859,50 C61.8309859,46.6197014 60.7042366,43.8028282 58.4507042,41.5492958 C56.1971718,39.2957634 53.3802986,38.1064169 50,37.9812207 Z"/>
</svg>
