<?xml version="1.0" encoding="UTF-8"?>
<svg width="100px" height="100px" viewBox="0 0 100 100" version="1.1" xmlns="http://www.w3.org/2000/svg" xmlns:xlink="http://www.w3.org/1999/xlink">
    <!-- Generator: Sketch 49.2 (51160) - http://www.bohemiancoding.com/sketch -->
    <title>pound</title>
    <desc>Created with Sketch.</desc>
    <defs></defs>
    <g id="pound" stroke="none" stroke-width="1" fill="none" fill-rule="evenodd">
        <path d="M19.92891,90.9478673 L23.3412322,72.8199052 L5,72.8199052 L6.70616114,63.6492891 L24.8341232,63.6492891 L29.7393365,36.3507109 L11.3981043,36.3507109 L13.1042654,27.1800948 L31.2322275,27.1800948 L34.4312796,9.0521327 L43.6018957,9.0521327 L40.4028436,27.1800948 L67.7014218,27.1800948 L70.9004739,9.0521327 L80.07109,9.0521327 L76.6587678,27.1800948 L95,27.1800948 L93.2938389,36.3507109 L75.1658768,36.3507109 L70.2606635,63.6492891 L88.6018957,63.6492891 L86.8957346,72.8199052 L68.7677725,72.8199052 L65.5687204,90.9478673 L56.3981043,90.9478673 L59.5971564,72.8199052 L32.2985782,72.8199052 L29.0995261,90.9478673 L19.92891,90.9478673 Z M38.6966825,36.3507109 L34.0047393,63.6492891 L61.3033175,63.6492891 L65.9952607,36.3507109 L38.6966825,36.3507109 Z" id="pound---Material-Design-Icons" fill="#000000"></path>
    </g>
</svg>