<svg xmlns="http://www.w3.org/2000/svg" width="100" height="100" viewBox="0 0 100 100">
  <g>
    <path d="M27.046229,26.5 C23.4985977,26.5 22.154781,26.7444071 20.7589719,27.4468699 C19.5991611,28.0305628 18.6876211,28.8784393 18.0216302,29.993031 C17.2201234,31.3344198 16.8792321,32.6570578 16.6228297,36.1954113 L13.2704723,82.457943 C13.2574006,82.6383331 13.2508583,82.819137 13.2508583,83 C13.2508583,87.1421356 16.6087227,90.5 20.7508583,90.5 L79.2491417,90.5 C79.4300047,90.5 79.6108086,90.4934577 79.7911987,90.480386 C83.9225018,90.1810162 87.0288975,86.5892461 86.7295277,82.457943 L83.3771703,36.1954113 C83.1207679,32.6570578 82.7798766,31.3344198 81.9783698,29.993031 C81.3123789,28.8784393 80.4008389,28.0305628 79.2410281,27.4468699 C77.845219,26.7444071 76.5014023,26.5 72.953771,26.5 L27.046229,26.5 Z M27.046229,21.5 L72.953771,21.5 C77.2171832,21.5 79.2992401,21.8786748 81.4887568,22.9805833 C83.4967935,23.9911592 85.1174608,25.4986363 86.2705232,27.428383 C87.5277958,29.532534 88.0559593,31.5817775 88.3640943,35.83404 L91.7164517,82.0965717 C92.2154013,88.9820769 87.0380751,94.9683603 80.15257,95.4673099 C79.8519199,95.4890962 79.5505801,95.5 79.2491417,95.5 L20.7508583,95.5 C13.8472989,95.5 8.25085829,89.9035594 8.25085829,83 C8.25085829,82.6985616 8.26176211,82.3972218 8.28354834,82.0965717 L11.6359057,35.83404 C11.9440407,31.5817775 12.4722042,29.532534 13.7294768,27.428383 C14.8825392,25.4986363 16.5032065,23.9911592 18.5112432,22.9805833 C20.7007599,21.8786748 22.7828168,21.5 27.046229,21.5 Z"/>
    <path d="M63,34.9995125 L63,23.5 C63,16.3202983 57.1797017,10.5 50,10.5 C42.8202983,10.5 37,16.3202983 37,23.5 L37,34.9995125 C37.6279105,35.8352566 38,36.8741752 38,38 C38,40.7614237 35.7614237,43 33,43 C30.2385763,43 28,40.7614237 28,38 C28,35.5810421 29.7177597,33.5632884 32,33.1000181 L32,23.5 C32,13.5588745 40.0588745,5.5 50,5.5 C59.9411255,5.5 68,13.5588745 68,23.5 L68,33.1000181 C70.2822403,33.5632884 72,35.5810421 72,38 C72,40.7614237 69.7614237,43 67,43 C64.2385763,43 62,40.7614237 62,38 C62,36.8741752 62.3720895,35.8352566 63,34.9995125 Z"/>
  </g>
</svg>
