<?xml version="1.0" encoding="UTF-8"?>
<svg width="100px" height="100px" viewBox="0 0 100 100" version="1.1" xmlns="http://www.w3.org/2000/svg" xmlns:xlink="http://www.w3.org/1999/xlink">
    <!-- Generator: Sketch 49.2 (51160) - http://www.bohemiancoding.com/sketch -->
    <title>sun</title>
    <desc>Created with Sketch.</desc>
    <defs></defs>
    <g id="sun" stroke="none" stroke-width="1" fill="none" fill-rule="evenodd">
        <path d="M15.5319149,78.8191489 L22.8085106,71.3510638 L28.5531915,77.0957447 L21.2765957,84.5638298 L15.5319149,78.8191489 Z M45.9787234,94.712766 L45.9787234,82.6489362 L54.0212766,82.6489362 L54.0212766,94.712766 L45.9787234,94.712766 Z M50,25.393617 C56.8936515,25.6489374 62.6701895,28.0744451 67.3297872,32.6702128 C71.989385,37.2659804 74.3829781,43.0106038 74.5106383,49.9042553 C74.3829781,56.925567 71.989385,62.7340196 67.3297872,67.3297872 C62.6701895,71.9255549 56.8936515,74.2872334 50,74.4148936 C43.1063485,74.2872334 37.3298105,71.9255549 32.6702128,67.3297872 C28.010615,62.7340196 25.6170219,56.925567 25.4893617,49.9042553 C25.6170219,43.0106038 28.010615,37.2659804 32.6702128,32.6702128 C37.3298105,28.0744451 43.1063485,25.6489374 50,25.393617 Z M82.7446809,54.1170213 L82.7446809,45.8829787 L95,45.8829787 L95,54.1170213 L82.7446809,54.1170213 Z M71.4468085,77.0957447 L77.1914894,71.3510638 L84.4680851,78.8191489 L78.7234043,84.5638298 L71.4468085,77.0957447 Z M84.4680851,21.1808511 L77.1914894,28.6489362 L71.4468085,22.712766 L78.7234043,15.4361702 L84.4680851,21.1808511 Z M54.0212766,5.28723404 L54.0212766,17.3510638 L45.9787234,17.3510638 L45.9787234,5.28723404 L54.0212766,5.28723404 Z M17.2553191,45.8829787 L17.2553191,54.1170213 L5,54.1170213 L5,45.8829787 L17.2553191,45.8829787 Z M28.5531915,22.712766 L22.8085106,28.6489362 L15.5319149,21.1808511 L21.2765957,15.4361702 L28.5531915,22.712766 Z" id="white-balance-sunny---Material-Design-Icons" fill="#000000"></path>
    </g>
</svg>