<?xml version="1.0" encoding="UTF-8"?>
<svg width="100px" height="100px" viewBox="0 0 100 100" version="1.1" xmlns="http://www.w3.org/2000/svg" xmlns:xlink="http://www.w3.org/1999/xlink">
    <!-- Generator: Sketch 49.2 (51160) - http://www.bohemiancoding.com/sketch -->
    <title>warning-sign-variant</title>
    <desc>Created with Sketch.</desc>
    <defs></defs>
    <g id="warning-sign-variant" stroke="none" stroke-width="1" fill="none" fill-rule="evenodd">
        <g id="!" transform="translate(8.000000, 8.000000)" fill="#000000">
            <path d="M44.888,23.608 L44.888,37.336 C44.888,38.0560036 44.8760001,38.7599966 44.852,39.448 C44.8279999,40.1360034 44.7920002,40.8279965 44.744,41.524 C44.6959998,42.2200035 44.6360004,42.9319964 44.564,43.66 C44.4919996,44.3880036 44.4080005,45.1679958 44.312,46 L41.408,46 C41.3119995,45.1679958 41.2280004,44.3880036 41.156,43.66 C41.0839996,42.9319964 41.0240002,42.2200035 40.976,41.524 C40.9279998,40.8279965 40.8920001,40.1360034 40.868,39.448 C40.8439999,38.7599966 40.832,38.0560036 40.832,37.336 L40.832,23.608 L44.888,23.608 Z M39.8,55.36 C39.8,54.9439979 39.8759992,54.5520018 40.028,54.184 C40.1800008,53.8159982 40.3879987,53.4960014 40.652,53.224 C40.9160013,52.9519986 41.2319982,52.7360008 41.6,52.576 C41.9680018,52.4159992 42.3599979,52.336 42.776,52.336 C43.1920021,52.336 43.5839982,52.4159992 43.952,52.576 C44.3200018,52.7360008 44.6399986,52.9519986 44.912,53.224 C45.1840014,53.4960014 45.3959992,53.8159982 45.548,54.184 C45.7000008,54.5520018 45.776,54.9439979 45.776,55.36 C45.776,55.7920022 45.7000008,56.1879982 45.548,56.548 C45.3959992,56.9080018 45.1840014,57.2239986 44.912,57.496 C44.6399986,57.7680014 44.3200018,57.9799992 43.952,58.132 C43.5839982,58.2840008 43.1920021,58.36 42.776,58.36 C42.3599979,58.36 41.9680018,58.2840008 41.6,58.132 C41.2319982,57.9799992 40.9160013,57.7680014 40.652,57.496 C40.3879987,57.2239986 40.1800008,56.9080018 40.028,56.548 C39.8759992,56.1879982 39.8,55.7920022 39.8,55.36 Z"></path>
            <path d="M42,84 C18.8040405,84 0,65.1959595 0,42 C0,18.8040405 18.8040405,0 42,0 C65.1959595,0 84,18.8040405 84,42 C84,65.1959595 65.1959595,84 42,84 Z M42,80 C62.9868205,80 80,62.9868205 80,42 C80,21.0131795 62.9868205,4 42,4 C21.0131795,4 4,21.0131795 4,42 C4,62.9868205 21.0131795,80 42,80 Z" id="border" fill-rule="nonzero"></path>
        </g>
    </g>
</svg>